<svg id="language_black_24dp" xmlns="http://www.w3.org/2000/svg" width="25.957" height="25.957" viewBox="0 0 25.957 25.957">
  <path id="Path_224" data-name="Path 224" d="M0,0H25.957V25.957H0Z" fill="none"/>
  <path id="Path_225" data-name="Path 225" d="M12.8,2A10.816,10.816,0,1,0,23.631,12.816,10.81,10.81,0,0,0,12.8,2Zm7.5,6.489H17.109a16.925,16.925,0,0,0-1.493-3.85A8.684,8.684,0,0,1,20.3,8.489ZM12.816,4.206a15.236,15.236,0,0,1,2.066,4.283H10.75A15.236,15.236,0,0,1,12.816,4.206ZM4.444,14.979a8.46,8.46,0,0,1,0-4.326H8.1a17.862,17.862,0,0,0-.151,2.163A17.862,17.862,0,0,0,8.1,14.979Zm.887,2.163H8.522a16.925,16.925,0,0,0,1.493,3.85,8.638,8.638,0,0,1-4.683-3.85ZM8.522,8.489H5.331a8.638,8.638,0,0,1,4.683-3.85,16.925,16.925,0,0,0-1.493,3.85Zm4.294,12.935a15.236,15.236,0,0,1-2.066-4.283h4.132A15.236,15.236,0,0,1,12.816,21.425Zm2.531-6.446H10.285a15.913,15.913,0,0,1-.173-2.163,15.774,15.774,0,0,1,.173-2.163h5.062a15.774,15.774,0,0,1,.173,2.163A15.913,15.913,0,0,1,15.346,14.979Zm.27,6.013a16.925,16.925,0,0,0,1.493-3.85H20.3A8.684,8.684,0,0,1,15.617,20.992Zm1.914-6.013a17.862,17.862,0,0,0,.151-2.163,17.862,17.862,0,0,0-.151-2.163h3.656a8.46,8.46,0,0,1,0,4.326Z" transform="translate(0.163 0.163)" fill="#fff"/>
</svg>
