<svg xmlns="http://www.w3.org/2000/svg" width="27.421" height="27.421" viewBox="0 0 27.421 27.421"><defs><style>.a{fill:#fff;}</style></defs><path class="a" d="M11.578,0H1.016A1.019,1.019,0,0,0,0,1.016V11.578a1.019,1.019,0,0,0,1.016,1.016H11.578a1.019,1.019,0,0,0,1.016-1.016V1.016A1.019,1.019,0,0,0,11.578,0ZM10.562,10.562H2.031V2.031h8.531Z"/><g transform="translate(14.828)"><path class="a" d="M157.578,0H147.016A1.019,1.019,0,0,0,146,1.016V11.578a1.019,1.019,0,0,0,1.016,1.016h10.562a1.019,1.019,0,0,0,1.016-1.016V1.016A1.019,1.019,0,0,0,157.578,0Zm-1.016,10.562h-8.531V2.031h8.531Z" transform="translate(-146)"/></g><g transform="translate(0 14.828)"><path class="a" d="M11.578,146H1.016A1.019,1.019,0,0,0,0,147.016v10.562a1.019,1.019,0,0,0,1.016,1.016H11.578a1.019,1.019,0,0,0,1.016-1.016V147.016A1.019,1.019,0,0,0,11.578,146Zm-1.016,10.562H2.031v-8.531h8.531Z" transform="translate(0 -146)"/></g><g transform="translate(14.828 14.828)"><path class="a" d="M157.578,146H147.016A1.019,1.019,0,0,0,146,147.016v10.562a1.019,1.019,0,0,0,1.016,1.016h10.562a1.019,1.019,0,0,0,1.016-1.016V147.016A1.019,1.019,0,0,0,157.578,146Zm-1.016,10.562h-8.531v-8.531h8.531Z" transform="translate(-146 -146)"/></g></svg>