<svg xmlns="http://www.w3.org/2000/svg" width="27.707" height="26.335" viewBox="0 0 27.707 26.335"><defs><style>.a{fill:#e6c068;}</style></defs><g transform="translate(342 -12.676)"><g transform="translate(-342 12.676)"><path class="a" d="M27.242,24.376,24.9,22.243V15.171a.815.815,0,0,0-.815-.815H18.452a.815.815,0,0,0-.815.815v.453L14.81,13.048a1.414,1.414,0,0,0-1.914,0L.465,24.376a1.421,1.421,0,0,0,.957,2.471H3.408V38.2a.815.815,0,0,0,.815.815h6.814a.815.815,0,0,0,.815-.815V31.3h4V38.2a.815.815,0,0,0,.815.815h6.813A.815.815,0,0,0,24.3,38.2V26.847h1.986a1.421,1.421,0,0,0,.957-2.471Zm-3.758.841a.815.815,0,0,0-.815.815V37.381H17.485V30.49a.815.815,0,0,0-.815-.815H11.036a.815.815,0,0,0-.815.815v6.891H5.037V26.032a.815.815,0,0,0-.815-.815H1.962L13.854,14.381l4.05,3.69a.815.815,0,0,0,1.364-.6V15.986h4V22.6a.815.815,0,0,0,.266.6l2.208,2.012Z" transform="translate(0 -12.676)"/></g></g></svg>