<svg id="account_circle_black_24dp" xmlns="http://www.w3.org/2000/svg" width="28.198" height="28.198" viewBox="0 0 28.198 28.198">
  <path id="Path_216" data-name="Path 216" d="M0,0H28.2V28.2H0Z" fill="none"/>
  <path id="Path_217" data-name="Path 217" d="M13.749,2A11.749,11.749,0,1,0,25.5,13.749,11.753,11.753,0,0,0,13.749,2ZM7.957,21.127c.505-1.057,3.583-2.091,5.792-2.091s5.3,1.034,5.792,2.091a9.312,9.312,0,0,1-11.585,0Zm13.265-1.7c-1.68-2.044-5.757-2.738-7.472-2.738s-5.792.693-7.472,2.738a9.4,9.4,0,1,1,14.945,0ZM13.749,6.7a4.112,4.112,0,1,0,4.112,4.112A4.1,4.1,0,0,0,13.749,6.7Zm0,5.875a1.762,1.762,0,1,1,1.762-1.762A1.76,1.76,0,0,1,13.749,12.574Z" transform="translate(0.35 0.35)" fill="#777"/>
</svg>
