<svg xmlns="http://www.w3.org/2000/svg" width="23.638" height="23.559" viewBox="0 0 23.638 23.559"><defs><style>.a{fill:#e15454;}</style></defs><g transform="translate(10.876 0)"><g transform="translate(0 0)"><path class="a" d="M.982,22.446H9.816a.982.982,0,0,0,.982-.982V3.795a.982.982,0,0,0-.982-.982H.982A.982.982,0,0,1,.982.85H9.816a2.948,2.948,0,0,1,2.945,2.945V21.464a2.948,2.948,0,0,1-2.945,2.945H.982a.982.982,0,1,1,0-1.963Z" transform="translate(0 -0.85)"/></g></g><g transform="translate(0 4.908)"><path class="a" d="M170.393,113.337l5.968-5.89a.981.981,0,0,1,1.378,1.4l-4.265,4.209H184.9a.982.982,0,1,1,0,1.963H173.474l4.265,4.209a.981.981,0,1,1-1.378,1.4l-5.968-5.89a.981.981,0,0,1,0-1.4Z" transform="translate(-170.1 -107.165)"/></g></svg>