<svg xmlns="http://www.w3.org/2000/svg" width="186" height="186" viewBox="0 0 186 186">
  <g id="Group_150" data-name="Group 150" transform="translate(-1603 -87)">
    <g id="Ellipse_35" data-name="Ellipse 35" transform="translate(1603 87)" fill="#fff" stroke="#707070" stroke-width="1">
      <circle cx="93" cy="93" r="93" stroke="none"/>
      <circle cx="93" cy="93" r="92.5" fill="none"/>
    </g>
    <path id="man" d="M110.863,108.057,108.09,96.965A16.107,16.107,0,0,0,97.529,85.507L77.192,78.731c-4.959-2.066-7.229-10.053-7.719-13.085a19.218,19.218,0,0,0,6.794-12.493,3.768,3.768,0,0,1,.559-2.38,2.311,2.311,0,0,0,1.585-1.387,34.545,34.545,0,0,0,2.477-10.1,2.221,2.221,0,0,0-.069-.559,5.944,5.944,0,0,0-2.242-3.365V23.11c0-7.446-2.274-10.5-4.668-12.271C73.453,7.252,69.612,0,55.469,0a24.1,24.1,0,0,0-23.11,23.11V35.363a5.944,5.944,0,0,0-2.242,3.365,2.223,2.223,0,0,0-.069.559,34.547,34.547,0,0,0,2.477,10.1,1.964,1.964,0,0,0,1.387,1.327c.259.129.744.8.744,2.436A19.214,19.214,0,0,0,41.488,65.67C41,68.7,38.747,76.679,33.926,78.694L13.409,85.507A16.107,16.107,0,0,0,2.852,96.956L.079,108.048a2.311,2.311,0,0,0,2.237,2.88H108.622a2.311,2.311,0,0,0,2.242-2.871Z" transform="translate(1640.492 124.5)" fill="#55565a" stroke="#55565a" stroke-width="2"/>
  </g>
</svg>
