<svg xmlns="http://www.w3.org/2000/svg" width="25.414" height="33.885" viewBox="0 0 25.414 33.885"><defs><style>.a{fill:#fff;}</style></defs><g transform="translate(-3)"><path class="a" d="M25.237,30.178H6.177A3.181,3.181,0,0,1,3,27V12.177A3.181,3.181,0,0,1,6.177,9H25.237a3.181,3.181,0,0,1,3.177,3.177V27A3.181,3.181,0,0,1,25.237,30.178ZM6.177,11.118a1.06,1.06,0,0,0-1.059,1.059V27a1.06,1.06,0,0,0,1.059,1.059H25.237A1.06,1.06,0,0,0,26.3,27V12.177a1.06,1.06,0,0,0-1.059-1.059Z" transform="translate(0 3.707)"/><path class="a" d="M21.884,14.825a1.059,1.059,0,0,1-1.059-1.059V8.471a6.354,6.354,0,1,0-12.707,0v5.295a1.059,1.059,0,0,1-2.118,0V8.471a8.471,8.471,0,1,1,16.943,0v5.295A1.059,1.059,0,0,1,21.884,14.825Z" transform="translate(1.236 0)"/><path class="a" d="M12.824,18.648a2.824,2.824,0,1,1,2.824-2.824A2.827,2.827,0,0,1,12.824,18.648Zm0-3.53a.706.706,0,1,0,.706.706A.707.707,0,0,0,12.824,15.118Z" transform="translate(2.883 5.355)"/><path class="a" d="M12.309,21.751a1.059,1.059,0,0,1-1.059-1.059V16.809a1.059,1.059,0,1,1,2.118,0v3.883A1.059,1.059,0,0,1,12.309,21.751Z" transform="translate(3.398 6.487)"/></g></svg>